<svg xmlns="http://www.w3.org/2000/svg" viewBox="0 0 500 500">
  <defs>
    <style>
      .a {
        isolation: isolate;
      }

      .b {
        font-size: 103.63px;
        font-family: Montserrat-Bold, Montserrat;
        font-weight: 700;
      }

      .b, .d, .f {
        fill: #ad0000;
      }

      .c {
        mix-blend-mode: multiply;
        opacity: 0.08;
      }

      .e, .g {
        fill: #fff;
      }

      .e, .f {
        fill-rule: evenodd;
      }
    </style>
  </defs>
  <g class="a">
    <g>
      <text class="b" transform="translate(207.9 288.66)">B</text>
      <g>
        <g class="c">
          <g>
            <path class="d" d="M362.7,326.15a36.69,36.69,0,0,0,.15-3.92c-.28-18.24,6.84-37,20-49.9,6.39-6.29,12.75-12.57,18.95-19a58.81,58.81,0,0,1,47.95-17.51c1,.1,2,.15,3,.17,17,.39,33.32-12.63,29.14-30.77-4.12-17.89-9.39-38.48-40.18-38a18.12,18.12,0,0,1-2.87-.5c-18.85-2.44-36.36-12.15-49.57-25.64q-10.12-10.56-19.92-21.43C357,105.73,347.4,88.55,344.18,70.14q-.29-1.65-.75-3.36c-2.6-9.57-8.59-18.11-15.56-25C321.33,35.28,313.08,29.4,304,27.38c-18.19-4.06-29.93,12.44-29.39,28.89.68,21,19,38.6,39.59,41.22l.73.09c17.52,1.94,33.17,11.55,45.07,24.24,9.32,10.16,18.39,20.55,28,30.47,11.85,12.39,21.93,27.87,23.94,45.26l0,.22a1.64,1.64,0,0,1,0,.22c2,16.13-3.47,31.41-14.52,43.42-8.66,9.18-17.12,18.51-26.17,27.3-12.78,12.52-30.39,19.14-48,19.81l-.83,0c-22.6,1.13-43.14,18.88-43.48,42.27a37.36,37.36,0,0,0,40.25,37.8C341.05,367,360.66,348,362.7,326.15Z"/>
            <path class="d" d="M183.2,368.57a40.94,40.94,0,0,0,4.14.17c19.08-.21,39.53,6.61,53,20.65,6.29,6.53,12.52,13.12,18.82,19.63,12.11,12.84,18.25,30.09,15.81,47.69-.14,1-.23,1.93-.29,2.89-.63,11.6,5.51,24.29,17.11,28,13.14,4.25,31.71-2.59,41.48-11.27,5.68-5.05,8-12.2,10.09-19.54,1.88-6.73.77-13.18,2.83-20,4.45-14.74,12.84-28.45,23.23-39.78q9.92-10.82,20.09-21.39c13.06-13.29,30.45-23,49-25.83,1.12-.17,2.24-.55,3.43-.7,24.9-3.25,36-21,40-39,1.68-7.45.06-15.35-5.43-20.87-6.13-6.18-15.06-8.18-23.4-7.71-20.31,1.13-38.32,18.14-41.27,38.41l-.09.7c-2.15,17.15-12.15,32.5-24,44.65-9.7,9.83-18.85,20.15-28.25,30.26-11.82,12.47-27.23,22.12-44.58,24.08l-.22,0-.22,0a52.52,52.52,0,0,1-43.36-15.15c-8.93-9-17.61-18.29-26.59-27.25a68.82,68.82,0,0,1-20.23-46.84c0-.26,0-.52,0-.78-.91-23.37-21.82-41-44.55-41.48-21.31-.47-40.91,15.07-39.29,37.51C142,347.62,161.63,366.56,183.2,368.57Z"/>
            <path class="d" d="M119.57,82.06c-7.36,19-24.68,36.31-43.67,43.64-3.62,1.4-12.82,5.17-16.27,1.17-3.2-3.71,2.72-10.56,4.79-13.27,6.09-8,13.44-15.25,20.59-22.39s14.41-14.53,22.42-20.62c2.75-2.09,9.55-7.93,13.27-4.65C124.68,69.43,121,78.41,119.57,82.06Z"/>
            <path class="d" d="M438.7,113.6c2,2.63,8,9.54,4.78,13.21-3.46,4-12.6.17-16.26-1.25-19-7.42-36.27-24.85-43.68-43.84-1.41-3.62-5.12-12.54-1.13-15.92,3.73-3.16,10.6,2.75,13.27,4.79,8,6.09,15.27,13.44,22.42,20.59S432.6,105.6,438.7,113.6Z"/>
            <path class="d" d="M119.64,433.8c1.4,3.57,5.07,12.43,1.09,15.81-3.75,3.19-10.55-2.65-13.3-4.74-8-6.09-15.25-13.46-22.4-20.6s-14.52-14.41-20.61-22.42c-2-2.64-8-9.54-4.69-13.13,3.56-3.88,12.76.08,16.36,1.52C94.88,397.76,112.23,414.93,119.64,433.8Z"/>
            <path class="d" d="M438.7,401.85c-6.11,8-13.46,15.28-20.62,22.44s-14.4,14.49-22.4,20.58c-2.67,2-9.54,7.95-13.3,4.87-4-3.27-.3-12.07,1.1-15.61,7.45-18.89,24.74-36.15,43.55-43.76,3.64-1.48,12.78-5.46,16.35-1.6C446.67,392.32,440.65,399.28,438.7,401.85Z"/>
            <path class="d" d="M189.1,419.57l-.81-.1c-18.63-2.09-35.44-12.57-48.12-26-7.52-8.12-14.92-16.36-22.71-24.22-12.81-13.1-23.69-29.46-26-48l0-.23c0-.25-.07-.51-.11-.76a52.76,52.76,0,0,1,15.94-46c6.31-6,12.73-11.78,18.72-18.05,13.74-14.44,33.22-21.68,52.85-21.55h1c23.7-.22,44-19.45,44.5-43.35.43-22.62-17.4-42.94-40.78-41.33-22.67,1.55-42.05,22.23-43.63,44.63q0,.47-.06.93c-.89,18.93-8.14,38.66-21.65,52.26-6.3,6.28-12.63,12.51-19.17,18.55a62.23,62.23,0,0,1-47.92,15.52l-.71-.06c-8.4-.57-17.38,1.45-23.6,7.62-5.59,5.56-7,13.3-5.55,20.9,5,25.7,17.18,35.59,40.45,39,.46.07.91.21,1.35.3a100.9,100.9,0,0,1,50.84,28q9.47,9.75,18.72,19.7c12.72,13.92,22.9,31.22,26.87,49.77.14.63.3,1.27.47,1.91,4.66,17.31,21.42,35.23,39.18,39.13s30-11.55,29.41-28.15C227.83,439.3,209.16,422.24,189.1,419.57Z"/>
            <path class="d" d="M320.31,150.74a39,39,0,0,0-4.19-.12c-19.69.57-39.86-7.18-53.33-21.75-6.25-6.73-12.38-13.57-18.61-20.32C232,95.12,225.91,77.68,228.27,59.61c.13-1,.23-2,.27-3C229.26,39.89,217.38,23.3,199,27.4c-9.23,2.06-21.26,5.57-27.81,12.22-6.93,7-9.12,18.29-11.6,27.94-.24,1-.45,1.89-.61,2.81-3.25,18.46-13.05,36-25.47,49.86q-9.82,10.76-19.94,21.21c-13.2,13.35-30.42,22.87-49.15,25.26a28.87,28.87,0,0,1-3.43.61c-23.71.14-35.9,20.05-39.78,38-4,18.35,11.85,30.65,28.73,30.7,20.68.07,38.29-17.18,41.15-37.47l.09-.72c2.19-17.52,12.09-33,24.09-45.59,9.59-9.91,18.73-20.22,28-30.42C155,109.15,170.61,99.16,188.07,97.3l.22,0,.23,0c16.43-1.9,32,3.82,43.75,15.69,9,9.42,17.64,19.16,26.4,28.82A78.12,78.12,0,0,1,279,191.83c0,.28,0,.55,0,.83.91,23.71,21.07,42.61,44.69,42.6,22.22,0,41.1-17.48,39.6-40.24C361.81,172.79,342.61,152.6,320.31,150.74Z"/>
          </g>
        </g>
        <g>
          <path class="d" d="M356.88,317.1a36.59,36.59,0,0,0,.15-3.92c-.27-18.23,6.84-37,20-49.9,6.38-6.29,12.74-12.56,18.94-19a58.87,58.87,0,0,1,48-17.52c1,.1,2,.15,3,.18,17,.39,33.32-12.63,29.14-30.78-4.11-17.89-9.39-38.47-40.18-38a20.33,20.33,0,0,1-2.86-.5c-18.86-2.44-36.36-12.15-49.57-25.65q-10.12-10.56-19.93-21.42c-12.31-13.9-21.93-31.08-25.15-49.48-.2-1.1-.44-2.23-.75-3.37-2.61-9.56-8.59-18.1-15.57-25-6.54-6.48-14.79-12.36-23.87-14.39-18.18-4.06-29.93,12.45-29.39,28.9.69,21,19,38.6,39.6,41.22l.73.09c17.51,1.93,33.16,11.54,45.06,24.23,9.33,10.17,18.39,20.55,28,30.47,11.84,12.4,21.92,27.88,23.93,45.27l0,.22,0,.22c2,16.13-3.48,31.4-14.52,43.41-8.66,9.18-17.13,18.51-26.18,27.31-12.77,12.51-30.39,19.13-48,19.8l-.82,0c-22.61,1.12-43.14,18.87-43.49,42.27a37.38,37.38,0,0,0,40.26,37.8C335.23,358,354.85,338.91,356.88,317.1Z"/>
          <path class="d" d="M177.39,359.52a38.11,38.11,0,0,0,4.14.17c19.08-.21,39.52,6.62,53,20.66,6.3,6.52,12.52,13.11,18.82,19.63,12.12,12.84,18.26,30.08,15.81,47.69-.13.95-.23,1.92-.28,2.89-.64,11.6,5.5,24.29,17.1,28,13.14,4.25,31.72-2.59,41.48-11.28,5.68-5.05,8.05-12.19,10.1-19.54,1.87-6.72.76-13.18,2.82-20C344.81,413,353.2,399.33,363.58,388q9.92-10.81,20.09-21.39c13.06-13.3,30.45-23,49-25.84,1.11-.17,2.23-.54,3.42-.7,24.91-3.25,36-21,40-38.95,1.69-7.45.06-15.36-5.42-20.88-6.14-6.17-15.07-8.17-23.41-7.71C427,273.68,409,290.68,406,311c0,.23-.07.46-.1.7-2.15,17.15-12.15,32.49-24,44.65-9.7,9.83-18.86,20.14-28.25,30.26-11.83,12.47-27.24,22.12-44.58,24.08l-.22,0-.23,0a52.57,52.57,0,0,1-43.36-15.15c-8.92-9-17.61-18.29-26.59-27.25a68.89,68.89,0,0,1-20.23-46.84c0-.26,0-.52,0-.78-.91-23.38-21.81-41-44.54-41.48-21.32-.48-40.91,15.06-39.3,37.5C136.17,338.57,155.82,357.51,177.39,359.52Z"/>
          <path class="d" d="M113.76,73c-7.37,19-24.69,36.31-43.67,43.63-3.62,1.4-12.82,5.18-16.28,1.17-3.19-3.71,2.73-10.55,4.79-13.26,6.09-8,13.44-15.25,20.59-22.4s14.42-14.52,22.43-20.62c2.74-2.09,9.55-7.92,13.27-4.65C118.86,60.38,115.18,69.36,113.76,73Z"/>
          <path class="d" d="M432.88,104.56c2,2.63,8,9.54,4.79,13.21-3.47,4-12.61.17-16.27-1.26-19-7.42-36.26-24.85-43.67-43.84-1.41-3.62-5.13-12.53-1.14-15.91,3.73-3.17,10.6,2.75,13.27,4.78,8,6.1,15.27,13.45,22.43,20.6S426.78,96.55,432.88,104.56Z"/>
          <path class="d" d="M113.83,424.75c1.4,3.57,5.06,12.43,1.08,15.82-3.75,3.19-10.55-2.66-13.29-4.75-8-6.09-15.26-13.45-22.41-20.6S64.7,400.82,58.6,392.81c-2-2.65-8-9.54-4.68-13.14,3.55-3.87,12.76.08,16.36,1.52C89.07,388.72,106.42,405.88,113.83,424.75Z"/>
          <path class="d" d="M432.88,392.81c-6.1,8-13.45,15.28-20.61,22.43s-14.41,14.49-22.41,20.58c-2.67,2-9.54,8-13.29,4.88-4-3.28-.3-12.08,1.09-15.61,7.45-18.9,24.74-36.15,43.55-43.77,3.65-1.47,12.78-5.46,16.35-1.6C440.86,383.28,434.83,390.24,432.88,392.81Z"/>
          <path class="d" d="M183.28,410.53l-.81-.1c-18.63-2.09-35.44-12.58-48.12-26-7.52-8.12-14.91-16.35-22.7-24.22-12.82-13.1-23.7-29.46-26-48l0-.23c0-.26-.07-.51-.1-.77a52.72,52.72,0,0,1,15.94-46c6.3-5.94,12.72-11.78,18.71-18.05,13.74-14.43,33.22-21.68,52.85-21.55.33,0,.65,0,1,0,23.7-.21,44.05-19.44,44.5-43.34.43-22.63-17.4-42.94-40.78-41.34-22.67,1.56-42,22.24-43.63,44.64l-.06.92c-.89,18.94-8.14,38.67-21.65,52.26-6.29,6.29-12.63,12.51-19.16,18.55a62.26,62.26,0,0,1-47.92,15.53l-.71-.07c-8.4-.57-17.39,1.45-23.61,7.63-5.59,5.55-7,13.29-5.55,20.89,5,25.7,17.18,35.59,40.46,39,.46.06.9.21,1.35.3a100.83,100.83,0,0,1,50.84,28q9.47,9.75,18.71,19.7c12.72,13.92,22.91,31.21,26.88,49.77.13.63.29,1.26.46,1.9,4.66,17.31,21.42,35.24,39.19,39.13s30-11.55,29.4-28.14C222,430.26,203.34,413.2,183.28,410.53Z"/>
          <path class="d" d="M314.49,141.7a36.41,36.41,0,0,0-4.18-.12c-19.7.57-39.86-7.18-53.33-21.76-6.26-6.72-12.39-13.56-18.62-20.31-12.15-13.43-18.27-30.88-15.91-48.94.13-1,.23-2,.28-3,.72-16.76-11.16-33.36-29.55-29.25-9.23,2.06-21.26,5.57-27.81,12.22-6.94,7-9.12,18.28-11.6,27.94-.25.95-.45,1.88-.62,2.8-3.24,18.46-13,36-25.47,49.87q-9.83,10.74-19.94,21.21c-13.2,13.35-30.41,22.86-49.14,25.25a25.19,25.19,0,0,1-3.44.61c-23.71.15-35.89,20.05-39.77,38-4,18.35,11.84,30.64,28.72,30.7,20.68.07,38.29-17.18,41.15-37.48,0-.24.07-.48.1-.72,2.18-17.52,12.08-33,24.08-45.59,9.59-9.91,18.73-20.21,28-30.41,11.74-12.64,27.34-22.63,44.8-24.49l.23,0,.22,0c16.44-1.9,32,3.82,43.76,15.68,9,9.42,17.64,19.17,26.39,28.83a78,78,0,0,1,20.29,50.08l0,.82c.91,23.71,21.07,42.61,44.69,42.61,22.22,0,41.09-17.49,39.59-40.25C356,163.74,336.79,143.55,314.49,141.7Z"/>
        </g>
      </g>
      <g>
        <path class="e" d="M312.77,213.42c13.47-13.38,34.1-43.91,13-59.91a21,21,0,0,0-25.53,0c-21.14,16-.51,46.23,12.58,59.91"/>
        <path class="f" d="M313.17,153c-10.23,0-18.52,8.8-18.52,19.66s8.29,19.65,18.52,19.65,18.51-8.8,18.51-19.65S323.39,153,313.17,153"/>
        <path class="g" d="M313.38,218.05c8.72,0,21.7-1.74,21.7-6.55,0-3.86-8-5.43-12.8-6l-.23,2.1c8.26,1,11,3.13,11,3.93,0,1.5-7,4.43-19.71,4.43s-19.71-2.93-19.71-4.43c0-.81,2.6-2.81,10.62-3.87l-.25-2.1c-4.62.61-12.36,2.19-12.36,6C291.68,216,302.93,218.05,313.38,218.05Z"/>
        <ellipse class="g" cx="313.38" cy="172.63" rx="11.49" ry="12.2"/>
      </g>
      <g>
        <path class="e" d="M313.06,349.08c13.46-13.38,34.1-43.91,12.95-59.91a20.93,20.93,0,0,0-25.53,0c-21.15,16-.51,46.23,12.58,59.91"/>
        <path class="f" d="M313.45,288.63c-10.22,0-18.51,8.8-18.51,19.65s8.29,19.66,18.51,19.66S332,319.14,332,308.28s-8.29-19.65-18.52-19.65"/>
        <path class="g" d="M313.67,353.71c8.72,0,21.7-1.74,21.7-6.55,0-3.86-8-5.43-12.8-6l-.24,2.1c8.26,1,11.05,3.13,11.05,3.93,0,1.5-7,4.43-19.71,4.43S294,348.66,294,347.16c0-.81,2.6-2.81,10.62-3.87l-.25-2.1c-4.62.61-12.36,2.19-12.36,6C292,351.66,303.21,353.71,313.67,353.71Z"/>
        <ellipse class="g" cx="313.67" cy="308.29" rx="11.49" ry="12.2"/>
      </g>
      <g>
        <path class="e" d="M177,346.76c13.47-13.38,34.1-43.91,12.95-59.91a21,21,0,0,0-25.53,0c-21.14,16-.51,46.24,12.58,59.91"/>
        <path class="f" d="M177.43,286.32c-10.23,0-18.52,8.8-18.52,19.65s8.29,19.65,18.52,19.65,18.51-8.79,18.51-19.65-8.29-19.65-18.51-19.65"/>
        <path class="g" d="M177.64,351.4c8.72,0,21.7-1.75,21.7-6.56,0-3.86-8-5.43-12.8-6l-.23,2.1c8.26,1,11,3.13,11,3.92,0,1.51-7,4.44-19.71,4.44s-19.71-2.93-19.71-4.44c0-.8,2.6-2.81,10.62-3.87l-.25-2.1c-4.62.61-12.36,2.19-12.36,6C155.94,349.34,167.19,351.4,177.64,351.4Z"/>
        <ellipse class="g" cx="177.64" cy="305.97" rx="11.49" ry="12.2"/>
      </g>
      <g>
        <path class="e" d="M176.81,212.1c11.94-11.87,30.24-38.94,11.49-53.13a18.58,18.58,0,0,0-22.64,0c-18.76,14.19-.46,41,11.15,53.13"/>
        <path class="f" d="M177.16,158.49c-9.07,0-16.42,7.81-16.42,17.43s7.35,17.43,16.42,17.43,16.42-7.8,16.42-17.43-7.35-17.43-16.42-17.43"/>
        <path class="g" d="M177.35,216.21c7.74,0,19.25-1.55,19.25-5.81,0-3.42-7.11-4.82-11.36-5.35l-.2,1.87c7.32.91,9.79,2.77,9.79,3.48,0,1.33-6.17,3.93-17.48,3.93s-17.48-2.6-17.48-3.93c0-.71,2.3-2.49,9.42-3.43l-.22-1.87c-4.1.54-11,2-11,5.3C158.1,214.39,168.08,216.21,177.35,216.21Z"/>
        <ellipse class="g" cx="177.35" cy="175.92" rx="10.19" ry="10.82"/>
      </g>
    </g>
  </g>
</svg>
